<mxfile host="Electron" modified="2024-01-07T09:13:43.421Z" agent="Mozilla/5.0 (Windows NT 10.0; Win64; x64) AppleWebKit/537.36 (KHTML, like Gecko) draw.io/22.1.2 Chrome/114.0.5735.289 Electron/25.9.4 Safari/537.36" etag="Z2SLhGMlCb-WR2x1JGeI" version="22.1.2" type="device">
  <diagram name="第 1 页" id="OdeV7MYnzkXa8fMw63dk">
    <mxGraphModel dx="3129" dy="2533" grid="1" gridSize="10" guides="1" tooltips="1" connect="1" arrows="1" fold="1" page="1" pageScale="1" pageWidth="827" pageHeight="1169" math="0" shadow="0">
      <root>
        <mxCell id="0" />
        <mxCell id="1" parent="0" />
        <mxCell id="NuLEImfmxlpeBDGJxHg6-1" value="" style="rounded=0;whiteSpace=wrap;html=1;" vertex="1" parent="1">
          <mxGeometry x="-450" y="-290" width="5100" height="2150" as="geometry" />
        </mxCell>
        <mxCell id="fIth8sYgdClS8fjmsM_W-233" value="" style="rounded=1;whiteSpace=wrap;html=1;fontColor=#6c8ebf;" parent="1" vertex="1">
          <mxGeometry x="1490" y="695" width="1070" height="305" as="geometry" />
        </mxCell>
        <mxCell id="fIth8sYgdClS8fjmsM_W-219" value="" style="rounded=1;whiteSpace=wrap;html=1;" parent="1" vertex="1">
          <mxGeometry x="1480" y="300" width="1100" height="295" as="geometry" />
        </mxCell>
        <mxCell id="fIth8sYgdClS8fjmsM_W-1" value="" style="rounded=1;whiteSpace=wrap;html=1;" parent="1" vertex="1">
          <mxGeometry x="20" y="110" width="1080" height="430" as="geometry" />
        </mxCell>
        <mxCell id="fIth8sYgdClS8fjmsM_W-36" style="edgeStyle=orthogonalEdgeStyle;rounded=0;orthogonalLoop=1;jettySize=auto;html=1;exitX=1;exitY=0.5;exitDx=0;exitDy=0;entryX=0;entryY=0.5;entryDx=0;entryDy=0;" parent="1" source="fIth8sYgdClS8fjmsM_W-15" target="fIth8sYgdClS8fjmsM_W-16" edge="1">
          <mxGeometry relative="1" as="geometry" />
        </mxCell>
        <mxCell id="fIth8sYgdClS8fjmsM_W-40" style="edgeStyle=orthogonalEdgeStyle;rounded=0;orthogonalLoop=1;jettySize=auto;html=1;exitX=0.5;exitY=1;exitDx=0;exitDy=0;entryX=0.5;entryY=0;entryDx=0;entryDy=0;" parent="1" source="fIth8sYgdClS8fjmsM_W-15" target="fIth8sYgdClS8fjmsM_W-20" edge="1">
          <mxGeometry relative="1" as="geometry" />
        </mxCell>
        <mxCell id="fIth8sYgdClS8fjmsM_W-15" value="&lt;font style=&quot;font-size: 20px;&quot; face=&quot;Comic Sans MS&quot;&gt;Forward1&lt;/font&gt;" style="rounded=1;whiteSpace=wrap;html=1;" parent="1" vertex="1">
          <mxGeometry x="340" y="210" width="120" height="60" as="geometry" />
        </mxCell>
        <mxCell id="fIth8sYgdClS8fjmsM_W-37" style="edgeStyle=orthogonalEdgeStyle;rounded=0;orthogonalLoop=1;jettySize=auto;html=1;exitX=1;exitY=0.5;exitDx=0;exitDy=0;entryX=0;entryY=0.5;entryDx=0;entryDy=0;" parent="1" source="fIth8sYgdClS8fjmsM_W-16" target="fIth8sYgdClS8fjmsM_W-17" edge="1">
          <mxGeometry relative="1" as="geometry" />
        </mxCell>
        <mxCell id="fIth8sYgdClS8fjmsM_W-39" style="edgeStyle=orthogonalEdgeStyle;rounded=0;orthogonalLoop=1;jettySize=auto;html=1;exitX=0.5;exitY=1;exitDx=0;exitDy=0;" parent="1" source="fIth8sYgdClS8fjmsM_W-16" target="fIth8sYgdClS8fjmsM_W-19" edge="1">
          <mxGeometry relative="1" as="geometry" />
        </mxCell>
        <mxCell id="fIth8sYgdClS8fjmsM_W-16" value="&lt;font style=&quot;font-size: 20px;&quot; face=&quot;Comic Sans MS&quot;&gt;Forward2&lt;/font&gt;" style="rounded=1;whiteSpace=wrap;html=1;" parent="1" vertex="1">
          <mxGeometry x="490" y="210" width="120" height="60" as="geometry" />
        </mxCell>
        <mxCell id="fIth8sYgdClS8fjmsM_W-38" style="edgeStyle=orthogonalEdgeStyle;rounded=0;orthogonalLoop=1;jettySize=auto;html=1;entryX=0.5;entryY=0;entryDx=0;entryDy=0;" parent="1" source="fIth8sYgdClS8fjmsM_W-17" target="fIth8sYgdClS8fjmsM_W-18" edge="1">
          <mxGeometry relative="1" as="geometry" />
        </mxCell>
        <mxCell id="fIth8sYgdClS8fjmsM_W-17" value="&lt;font style=&quot;font-size: 20px;&quot; face=&quot;Comic Sans MS&quot;&gt;Forward3&lt;/font&gt;" style="rounded=1;whiteSpace=wrap;html=1;" parent="1" vertex="1">
          <mxGeometry x="640" y="210" width="120" height="60" as="geometry" />
        </mxCell>
        <mxCell id="fIth8sYgdClS8fjmsM_W-41" style="edgeStyle=orthogonalEdgeStyle;rounded=0;orthogonalLoop=1;jettySize=auto;html=1;exitX=0;exitY=0.5;exitDx=0;exitDy=0;" parent="1" source="fIth8sYgdClS8fjmsM_W-18" target="fIth8sYgdClS8fjmsM_W-19" edge="1">
          <mxGeometry relative="1" as="geometry" />
        </mxCell>
        <mxCell id="fIth8sYgdClS8fjmsM_W-49" style="edgeStyle=orthogonalEdgeStyle;rounded=0;orthogonalLoop=1;jettySize=auto;html=1;exitX=0.5;exitY=1;exitDx=0;exitDy=0;entryX=0.5;entryY=0;entryDx=0;entryDy=0;" parent="1" source="fIth8sYgdClS8fjmsM_W-18" target="fIth8sYgdClS8fjmsM_W-47" edge="1">
          <mxGeometry relative="1" as="geometry" />
        </mxCell>
        <mxCell id="fIth8sYgdClS8fjmsM_W-18" value="&lt;font style=&quot;font-size: 20px;&quot; face=&quot;Comic Sans MS&quot;&gt;Backward3&lt;/font&gt;" style="rounded=1;whiteSpace=wrap;html=1;" parent="1" vertex="1">
          <mxGeometry x="640" y="350" width="120" height="60" as="geometry" />
        </mxCell>
        <mxCell id="fIth8sYgdClS8fjmsM_W-42" style="edgeStyle=orthogonalEdgeStyle;rounded=0;orthogonalLoop=1;jettySize=auto;html=1;exitX=0;exitY=0.5;exitDx=0;exitDy=0;" parent="1" source="fIth8sYgdClS8fjmsM_W-19" target="fIth8sYgdClS8fjmsM_W-20" edge="1">
          <mxGeometry relative="1" as="geometry" />
        </mxCell>
        <mxCell id="fIth8sYgdClS8fjmsM_W-48" style="edgeStyle=orthogonalEdgeStyle;rounded=0;orthogonalLoop=1;jettySize=auto;html=1;exitX=0.5;exitY=1;exitDx=0;exitDy=0;entryX=0.5;entryY=0;entryDx=0;entryDy=0;" parent="1" source="fIth8sYgdClS8fjmsM_W-19" target="fIth8sYgdClS8fjmsM_W-46" edge="1">
          <mxGeometry relative="1" as="geometry" />
        </mxCell>
        <mxCell id="fIth8sYgdClS8fjmsM_W-19" value="&lt;font style=&quot;font-size: 20px;&quot; face=&quot;Comic Sans MS&quot;&gt;Backward2&lt;/font&gt;" style="rounded=1;whiteSpace=wrap;html=1;" parent="1" vertex="1">
          <mxGeometry x="490" y="350" width="120" height="60" as="geometry" />
        </mxCell>
        <mxCell id="fIth8sYgdClS8fjmsM_W-43" style="edgeStyle=orthogonalEdgeStyle;rounded=0;orthogonalLoop=1;jettySize=auto;html=1;exitX=0.5;exitY=1;exitDx=0;exitDy=0;entryX=0.5;entryY=0;entryDx=0;entryDy=0;" parent="1" source="fIth8sYgdClS8fjmsM_W-20" target="fIth8sYgdClS8fjmsM_W-45" edge="1">
          <mxGeometry relative="1" as="geometry">
            <mxPoint x="400" y="440" as="targetPoint" />
          </mxGeometry>
        </mxCell>
        <mxCell id="fIth8sYgdClS8fjmsM_W-20" value="&lt;font style=&quot;font-size: 20px;&quot; face=&quot;Comic Sans MS&quot;&gt;Backward1&lt;/font&gt;" style="rounded=1;whiteSpace=wrap;html=1;" parent="1" vertex="1">
          <mxGeometry x="340" y="350" width="120" height="60" as="geometry" />
        </mxCell>
        <mxCell id="PSGuO14oiP5YhkY9rEZN-1" style="rounded=0;orthogonalLoop=1;jettySize=auto;html=1;exitX=0;exitY=0.5;exitDx=0;exitDy=0;entryX=1;entryY=0.5;entryDx=0;entryDy=0;" parent="1" source="fIth8sYgdClS8fjmsM_W-21" target="fIth8sYgdClS8fjmsM_W-18" edge="1">
          <mxGeometry relative="1" as="geometry" />
        </mxCell>
        <mxCell id="fIth8sYgdClS8fjmsM_W-21" value="&lt;font style=&quot;font-size: 20px;&quot; face=&quot;Comic Sans MS&quot;&gt;loss&lt;br&gt;&lt;/font&gt;" style="rounded=1;whiteSpace=wrap;html=1;" parent="1" vertex="1">
          <mxGeometry x="810" y="280" width="120" height="60" as="geometry" />
        </mxCell>
        <mxCell id="fIth8sYgdClS8fjmsM_W-24" value="" style="endArrow=classic;html=1;rounded=0;entryX=0;entryY=0.5;entryDx=0;entryDy=0;exitX=1;exitY=0.5;exitDx=0;exitDy=0;" parent="1" source="fIth8sYgdClS8fjmsM_W-17" target="fIth8sYgdClS8fjmsM_W-21" edge="1">
          <mxGeometry width="50" height="50" relative="1" as="geometry">
            <mxPoint x="720" y="390" as="sourcePoint" />
            <mxPoint x="770" y="340" as="targetPoint" />
          </mxGeometry>
        </mxCell>
        <mxCell id="fIth8sYgdClS8fjmsM_W-27" value="" style="endArrow=classic;html=1;rounded=0;exitX=0.992;exitY=0.358;exitDx=0;exitDy=0;exitPerimeter=0;" parent="1" source="fIth8sYgdClS8fjmsM_W-17" edge="1">
          <mxGeometry width="50" height="50" relative="1" as="geometry">
            <mxPoint x="720" y="390" as="sourcePoint" />
            <mxPoint x="870" y="230" as="targetPoint" />
          </mxGeometry>
        </mxCell>
        <mxCell id="fIth8sYgdClS8fjmsM_W-29" value="&lt;font style=&quot;font-size: 20px;&quot; face=&quot;Comic Sans MS&quot;&gt;4, 7, 8, 1, 6, 2&lt;/font&gt;" style="text;html=1;strokeColor=none;fillColor=none;align=center;verticalAlign=middle;whiteSpace=wrap;rounded=0;" parent="1" vertex="1">
          <mxGeometry x="870" y="210" width="150" height="40" as="geometry" />
        </mxCell>
        <mxCell id="fIth8sYgdClS8fjmsM_W-30" value="&lt;font color=&quot;#99ff99&quot; style=&quot;font-size: 20px;&quot; face=&quot;Comic Sans MS&quot;&gt;Output&lt;/font&gt;" style="text;html=1;strokeColor=none;fillColor=none;align=center;verticalAlign=middle;whiteSpace=wrap;rounded=0;" parent="1" vertex="1">
          <mxGeometry x="900" y="250" width="90" height="20" as="geometry" />
        </mxCell>
        <mxCell id="fIth8sYgdClS8fjmsM_W-31" value="&lt;font style=&quot;font-size: 20px;&quot; face=&quot;Comic Sans MS&quot;&gt;4, 1, 8, 7, 6, 2&lt;/font&gt;" style="text;html=1;strokeColor=none;fillColor=none;align=center;verticalAlign=middle;whiteSpace=wrap;rounded=0;" parent="1" vertex="1">
          <mxGeometry x="930" y="360" width="150" height="40" as="geometry" />
        </mxCell>
        <mxCell id="fIth8sYgdClS8fjmsM_W-33" value="" style="endArrow=classic;html=1;rounded=0;exitX=0;exitY=0.5;exitDx=0;exitDy=0;entryX=0.75;entryY=1;entryDx=0;entryDy=0;" parent="1" source="fIth8sYgdClS8fjmsM_W-31" target="fIth8sYgdClS8fjmsM_W-21" edge="1">
          <mxGeometry width="50" height="50" relative="1" as="geometry">
            <mxPoint x="740" y="360" as="sourcePoint" />
            <mxPoint x="790" y="310" as="targetPoint" />
          </mxGeometry>
        </mxCell>
        <mxCell id="fIth8sYgdClS8fjmsM_W-34" value="&lt;font style=&quot;font-size: 20px;&quot; face=&quot;Comic Sans MS&quot;&gt;Target&lt;/font&gt;" style="text;html=1;strokeColor=none;fillColor=none;align=center;verticalAlign=middle;whiteSpace=wrap;rounded=0;fontColor=#FFD966;" parent="1" vertex="1">
          <mxGeometry x="945" y="410" width="120" height="20" as="geometry" />
        </mxCell>
        <mxCell id="fIth8sYgdClS8fjmsM_W-45" value="&lt;font style=&quot;font-size: 15px;&quot;&gt;&lt;span style=&quot;font-size: 15px;&quot;&gt;W1.grad&lt;/span&gt;&lt;/font&gt;" style="rounded=1;whiteSpace=wrap;html=1;fontFamily=Comic Sans MS;fontSize=15;strokeColor=none;" parent="1" vertex="1">
          <mxGeometry x="340" y="450" width="120" height="40" as="geometry" />
        </mxCell>
        <mxCell id="fIth8sYgdClS8fjmsM_W-46" value="&lt;font style=&quot;font-size: 15px;&quot;&gt;&lt;span style=&quot;font-size: 15px;&quot;&gt;W2.grad&lt;/span&gt;&lt;/font&gt;" style="rounded=1;whiteSpace=wrap;html=1;fontFamily=Comic Sans MS;fontSize=15;strokeColor=none;" parent="1" vertex="1">
          <mxGeometry x="490" y="455" width="120" height="40" as="geometry" />
        </mxCell>
        <mxCell id="fIth8sYgdClS8fjmsM_W-47" value="&lt;font style=&quot;font-size: 15px;&quot;&gt;&lt;span style=&quot;font-size: 15px;&quot;&gt;W3.grad&lt;/span&gt;&lt;/font&gt;" style="rounded=1;whiteSpace=wrap;html=1;fontFamily=Comic Sans MS;fontSize=15;strokeColor=none;" parent="1" vertex="1">
          <mxGeometry x="640" y="455" width="120" height="40" as="geometry" />
        </mxCell>
        <mxCell id="fIth8sYgdClS8fjmsM_W-12" value="" style="group" parent="1" vertex="1" connectable="0">
          <mxGeometry x="110" y="180" width="140" height="90" as="geometry" />
        </mxCell>
        <mxCell id="fIth8sYgdClS8fjmsM_W-5" value="4" style="rounded=0;whiteSpace=wrap;html=1;fontSize=20;fontFamily=Comic Sans MS;fillColor=#000000;fontColor=#ffffff;" parent="fIth8sYgdClS8fjmsM_W-12" vertex="1">
          <mxGeometry width="40" height="40" as="geometry" />
        </mxCell>
        <mxCell id="fIth8sYgdClS8fjmsM_W-6" value="1" style="rounded=0;whiteSpace=wrap;html=1;fontSize=20;fontFamily=Comic Sans MS;fillColor=#000000;fontColor=#ffffff;" parent="fIth8sYgdClS8fjmsM_W-12" vertex="1">
          <mxGeometry x="50" width="40" height="40" as="geometry" />
        </mxCell>
        <mxCell id="fIth8sYgdClS8fjmsM_W-7" value="8" style="rounded=0;whiteSpace=wrap;html=1;fontSize=20;fontFamily=Comic Sans MS;fillColor=#000000;fontColor=#ffffff;" parent="fIth8sYgdClS8fjmsM_W-12" vertex="1">
          <mxGeometry x="100" width="40" height="40" as="geometry" />
        </mxCell>
        <mxCell id="fIth8sYgdClS8fjmsM_W-8" value="7" style="rounded=0;whiteSpace=wrap;html=1;fontSize=20;fontFamily=Comic Sans MS;fillColor=#000000;fontColor=#ffffff;" parent="fIth8sYgdClS8fjmsM_W-12" vertex="1">
          <mxGeometry y="50" width="40" height="40" as="geometry" />
        </mxCell>
        <mxCell id="fIth8sYgdClS8fjmsM_W-10" value="6" style="rounded=0;whiteSpace=wrap;html=1;fontSize=20;fontFamily=Comic Sans MS;fillColor=#000000;fontColor=#ffffff;" parent="fIth8sYgdClS8fjmsM_W-12" vertex="1">
          <mxGeometry x="50" y="50" width="40" height="40" as="geometry" />
        </mxCell>
        <mxCell id="fIth8sYgdClS8fjmsM_W-11" value="2" style="rounded=0;whiteSpace=wrap;html=1;fontSize=20;fontFamily=Comic Sans MS;fillColor=#000000;fontColor=#ffffff;" parent="fIth8sYgdClS8fjmsM_W-12" vertex="1">
          <mxGeometry x="100" y="50" width="40" height="40" as="geometry" />
        </mxCell>
        <mxCell id="fIth8sYgdClS8fjmsM_W-35" value="&lt;font color=&quot;#99ff99&quot; style=&quot;font-size: 20px;&quot; face=&quot;Comic Sans MS&quot;&gt;Input&lt;/font&gt;" style="text;html=1;strokeColor=none;fillColor=none;align=center;verticalAlign=middle;whiteSpace=wrap;rounded=0;" parent="1" vertex="1">
          <mxGeometry x="135" y="290" width="90" height="20" as="geometry" />
        </mxCell>
        <mxCell id="fIth8sYgdClS8fjmsM_W-51" value="" style="endArrow=classic;html=1;rounded=0;entryX=0;entryY=0.5;entryDx=0;entryDy=0;" parent="1" target="fIth8sYgdClS8fjmsM_W-15" edge="1">
          <mxGeometry width="50" height="50" relative="1" as="geometry">
            <mxPoint x="260" y="230" as="sourcePoint" />
            <mxPoint x="320" y="130" as="targetPoint" />
          </mxGeometry>
        </mxCell>
        <mxCell id="fIth8sYgdClS8fjmsM_W-52" value="Node1" style="text;html=1;strokeColor=none;fillColor=none;align=center;verticalAlign=middle;whiteSpace=wrap;rounded=0;fontFamily=Comic Sans MS;fontSize=20;" parent="1" vertex="1">
          <mxGeometry x="80" y="495" width="60" height="30" as="geometry" />
        </mxCell>
        <mxCell id="fIth8sYgdClS8fjmsM_W-55" value="" style="rounded=1;whiteSpace=wrap;html=1;" parent="1" vertex="1">
          <mxGeometry x="30" y="700" width="1080" height="430" as="geometry" />
        </mxCell>
        <mxCell id="fIth8sYgdClS8fjmsM_W-56" style="edgeStyle=orthogonalEdgeStyle;rounded=0;orthogonalLoop=1;jettySize=auto;html=1;exitX=1;exitY=0.5;exitDx=0;exitDy=0;entryX=0;entryY=0.5;entryDx=0;entryDy=0;" parent="1" source="fIth8sYgdClS8fjmsM_W-58" target="fIth8sYgdClS8fjmsM_W-61" edge="1">
          <mxGeometry relative="1" as="geometry" />
        </mxCell>
        <mxCell id="fIth8sYgdClS8fjmsM_W-57" style="edgeStyle=orthogonalEdgeStyle;rounded=0;orthogonalLoop=1;jettySize=auto;html=1;exitX=0.5;exitY=1;exitDx=0;exitDy=0;entryX=0.5;entryY=0;entryDx=0;entryDy=0;" parent="1" source="fIth8sYgdClS8fjmsM_W-58" target="fIth8sYgdClS8fjmsM_W-71" edge="1">
          <mxGeometry relative="1" as="geometry" />
        </mxCell>
        <mxCell id="fIth8sYgdClS8fjmsM_W-58" value="&lt;font style=&quot;font-size: 20px;&quot; face=&quot;Comic Sans MS&quot;&gt;Forward1&lt;/font&gt;" style="rounded=1;whiteSpace=wrap;html=1;" parent="1" vertex="1">
          <mxGeometry x="340" y="810" width="120" height="60" as="geometry" />
        </mxCell>
        <mxCell id="fIth8sYgdClS8fjmsM_W-59" style="edgeStyle=orthogonalEdgeStyle;rounded=0;orthogonalLoop=1;jettySize=auto;html=1;exitX=1;exitY=0.5;exitDx=0;exitDy=0;entryX=0;entryY=0.5;entryDx=0;entryDy=0;" parent="1" source="fIth8sYgdClS8fjmsM_W-61" target="fIth8sYgdClS8fjmsM_W-63" edge="1">
          <mxGeometry relative="1" as="geometry" />
        </mxCell>
        <mxCell id="fIth8sYgdClS8fjmsM_W-60" style="edgeStyle=orthogonalEdgeStyle;rounded=0;orthogonalLoop=1;jettySize=auto;html=1;exitX=0.5;exitY=1;exitDx=0;exitDy=0;" parent="1" source="fIth8sYgdClS8fjmsM_W-61" target="fIth8sYgdClS8fjmsM_W-69" edge="1">
          <mxGeometry relative="1" as="geometry" />
        </mxCell>
        <mxCell id="fIth8sYgdClS8fjmsM_W-61" value="&lt;font style=&quot;font-size: 20px;&quot; face=&quot;Comic Sans MS&quot;&gt;Forward2&lt;/font&gt;" style="rounded=1;whiteSpace=wrap;html=1;" parent="1" vertex="1">
          <mxGeometry x="490" y="810" width="120" height="60" as="geometry" />
        </mxCell>
        <mxCell id="fIth8sYgdClS8fjmsM_W-62" style="edgeStyle=orthogonalEdgeStyle;rounded=0;orthogonalLoop=1;jettySize=auto;html=1;entryX=0.5;entryY=0;entryDx=0;entryDy=0;" parent="1" source="fIth8sYgdClS8fjmsM_W-63" target="fIth8sYgdClS8fjmsM_W-66" edge="1">
          <mxGeometry relative="1" as="geometry" />
        </mxCell>
        <mxCell id="fIth8sYgdClS8fjmsM_W-63" value="&lt;font style=&quot;font-size: 20px;&quot; face=&quot;Comic Sans MS&quot;&gt;Forward3&lt;/font&gt;" style="rounded=1;whiteSpace=wrap;html=1;" parent="1" vertex="1">
          <mxGeometry x="640" y="810" width="120" height="60" as="geometry" />
        </mxCell>
        <mxCell id="fIth8sYgdClS8fjmsM_W-64" style="edgeStyle=orthogonalEdgeStyle;rounded=0;orthogonalLoop=1;jettySize=auto;html=1;exitX=0;exitY=0.5;exitDx=0;exitDy=0;" parent="1" source="fIth8sYgdClS8fjmsM_W-66" target="fIth8sYgdClS8fjmsM_W-69" edge="1">
          <mxGeometry relative="1" as="geometry" />
        </mxCell>
        <mxCell id="fIth8sYgdClS8fjmsM_W-65" style="edgeStyle=orthogonalEdgeStyle;rounded=0;orthogonalLoop=1;jettySize=auto;html=1;exitX=0.5;exitY=1;exitDx=0;exitDy=0;entryX=0.5;entryY=0;entryDx=0;entryDy=0;" parent="1" source="fIth8sYgdClS8fjmsM_W-66" target="fIth8sYgdClS8fjmsM_W-83" edge="1">
          <mxGeometry relative="1" as="geometry" />
        </mxCell>
        <mxCell id="fIth8sYgdClS8fjmsM_W-66" value="&lt;font style=&quot;font-size: 20px;&quot; face=&quot;Comic Sans MS&quot;&gt;Backward3&lt;/font&gt;" style="rounded=1;whiteSpace=wrap;html=1;" parent="1" vertex="1">
          <mxGeometry x="640" y="950" width="120" height="60" as="geometry" />
        </mxCell>
        <mxCell id="fIth8sYgdClS8fjmsM_W-67" style="edgeStyle=orthogonalEdgeStyle;rounded=0;orthogonalLoop=1;jettySize=auto;html=1;exitX=0;exitY=0.5;exitDx=0;exitDy=0;" parent="1" source="fIth8sYgdClS8fjmsM_W-69" target="fIth8sYgdClS8fjmsM_W-71" edge="1">
          <mxGeometry relative="1" as="geometry" />
        </mxCell>
        <mxCell id="fIth8sYgdClS8fjmsM_W-68" style="edgeStyle=orthogonalEdgeStyle;rounded=0;orthogonalLoop=1;jettySize=auto;html=1;exitX=0.5;exitY=1;exitDx=0;exitDy=0;entryX=0.5;entryY=0;entryDx=0;entryDy=0;" parent="1" source="fIth8sYgdClS8fjmsM_W-69" target="fIth8sYgdClS8fjmsM_W-82" edge="1">
          <mxGeometry relative="1" as="geometry" />
        </mxCell>
        <mxCell id="fIth8sYgdClS8fjmsM_W-69" value="&lt;font style=&quot;font-size: 20px;&quot; face=&quot;Comic Sans MS&quot;&gt;Backward2&lt;/font&gt;" style="rounded=1;whiteSpace=wrap;html=1;" parent="1" vertex="1">
          <mxGeometry x="490" y="950" width="120" height="60" as="geometry" />
        </mxCell>
        <mxCell id="fIth8sYgdClS8fjmsM_W-70" style="edgeStyle=orthogonalEdgeStyle;rounded=0;orthogonalLoop=1;jettySize=auto;html=1;exitX=0.5;exitY=1;exitDx=0;exitDy=0;entryX=0.5;entryY=0;entryDx=0;entryDy=0;" parent="1" source="fIth8sYgdClS8fjmsM_W-71" target="fIth8sYgdClS8fjmsM_W-81" edge="1">
          <mxGeometry relative="1" as="geometry">
            <mxPoint x="400" y="1040" as="targetPoint" />
          </mxGeometry>
        </mxCell>
        <mxCell id="fIth8sYgdClS8fjmsM_W-71" value="&lt;font style=&quot;font-size: 20px;&quot; face=&quot;Comic Sans MS&quot;&gt;Backward1&lt;/font&gt;" style="rounded=1;whiteSpace=wrap;html=1;" parent="1" vertex="1">
          <mxGeometry x="340" y="950" width="120" height="60" as="geometry" />
        </mxCell>
        <mxCell id="fIth8sYgdClS8fjmsM_W-72" value="&lt;font style=&quot;font-size: 20px;&quot; face=&quot;Comic Sans MS&quot;&gt;loss&lt;br&gt;&lt;/font&gt;" style="rounded=1;whiteSpace=wrap;html=1;" parent="1" vertex="1">
          <mxGeometry x="810" y="880" width="120" height="60" as="geometry" />
        </mxCell>
        <mxCell id="fIth8sYgdClS8fjmsM_W-73" value="" style="endArrow=classic;html=1;rounded=0;entryX=0;entryY=0.5;entryDx=0;entryDy=0;exitX=1;exitY=0.5;exitDx=0;exitDy=0;" parent="1" source="fIth8sYgdClS8fjmsM_W-63" target="fIth8sYgdClS8fjmsM_W-72" edge="1">
          <mxGeometry width="50" height="50" relative="1" as="geometry">
            <mxPoint x="720" y="990" as="sourcePoint" />
            <mxPoint x="770" y="940" as="targetPoint" />
          </mxGeometry>
        </mxCell>
        <mxCell id="fIth8sYgdClS8fjmsM_W-74" value="" style="endArrow=classic;html=1;rounded=0;exitX=1;exitY=0.5;exitDx=0;exitDy=0;entryX=1;entryY=0.5;entryDx=0;entryDy=0;" parent="1" source="fIth8sYgdClS8fjmsM_W-66" target="fIth8sYgdClS8fjmsM_W-66" edge="1">
          <mxGeometry width="50" height="50" relative="1" as="geometry">
            <mxPoint x="770" y="850" as="sourcePoint" />
            <mxPoint x="820" y="910" as="targetPoint" />
            <Array as="points">
              <mxPoint x="810" y="920" />
            </Array>
          </mxGeometry>
        </mxCell>
        <mxCell id="fIth8sYgdClS8fjmsM_W-75" value="" style="endArrow=classic;html=1;rounded=0;exitX=0.992;exitY=0.358;exitDx=0;exitDy=0;exitPerimeter=0;" parent="1" source="fIth8sYgdClS8fjmsM_W-63" edge="1">
          <mxGeometry width="50" height="50" relative="1" as="geometry">
            <mxPoint x="720" y="990" as="sourcePoint" />
            <mxPoint x="870" y="830" as="targetPoint" />
          </mxGeometry>
        </mxCell>
        <mxCell id="fIth8sYgdClS8fjmsM_W-76" value="&lt;font style=&quot;font-size: 20px;&quot; face=&quot;Comic Sans MS&quot;&gt;4, 7, 8&lt;/font&gt;" style="text;html=1;strokeColor=none;fillColor=none;align=center;verticalAlign=middle;whiteSpace=wrap;rounded=0;" parent="1" vertex="1">
          <mxGeometry x="870" y="810" width="150" height="40" as="geometry" />
        </mxCell>
        <mxCell id="fIth8sYgdClS8fjmsM_W-77" value="&lt;font color=&quot;#99ff99&quot; style=&quot;font-size: 20px;&quot; face=&quot;Comic Sans MS&quot;&gt;Output&lt;/font&gt;" style="text;html=1;strokeColor=none;fillColor=none;align=center;verticalAlign=middle;whiteSpace=wrap;rounded=0;" parent="1" vertex="1">
          <mxGeometry x="900" y="850" width="90" height="20" as="geometry" />
        </mxCell>
        <mxCell id="fIth8sYgdClS8fjmsM_W-78" value="&lt;font style=&quot;font-size: 20px;&quot; face=&quot;Comic Sans MS&quot;&gt;4, 1, 8&lt;/font&gt;" style="text;html=1;strokeColor=none;fillColor=none;align=center;verticalAlign=middle;whiteSpace=wrap;rounded=0;" parent="1" vertex="1">
          <mxGeometry x="930" y="960" width="150" height="40" as="geometry" />
        </mxCell>
        <mxCell id="fIth8sYgdClS8fjmsM_W-79" value="" style="endArrow=classic;html=1;rounded=0;exitX=0;exitY=0.5;exitDx=0;exitDy=0;entryX=0.75;entryY=1;entryDx=0;entryDy=0;" parent="1" source="fIth8sYgdClS8fjmsM_W-78" target="fIth8sYgdClS8fjmsM_W-72" edge="1">
          <mxGeometry width="50" height="50" relative="1" as="geometry">
            <mxPoint x="740" y="960" as="sourcePoint" />
            <mxPoint x="790" y="910" as="targetPoint" />
          </mxGeometry>
        </mxCell>
        <mxCell id="fIth8sYgdClS8fjmsM_W-80" value="&lt;font style=&quot;font-size: 20px;&quot; face=&quot;Comic Sans MS&quot;&gt;Target&lt;/font&gt;" style="text;html=1;strokeColor=none;fillColor=none;align=center;verticalAlign=middle;whiteSpace=wrap;rounded=0;fontColor=#FFD966;" parent="1" vertex="1">
          <mxGeometry x="945" y="1010" width="120" height="20" as="geometry" />
        </mxCell>
        <mxCell id="fIth8sYgdClS8fjmsM_W-81" value="&lt;font style=&quot;font-size: 15px;&quot;&gt;&lt;span style=&quot;font-size: 15px;&quot;&gt;W1.grad&lt;/span&gt;&lt;/font&gt;" style="rounded=1;whiteSpace=wrap;html=1;fontFamily=Comic Sans MS;fontSize=15;strokeColor=none;" parent="1" vertex="1">
          <mxGeometry x="340" y="1050" width="120" height="40" as="geometry" />
        </mxCell>
        <mxCell id="fIth8sYgdClS8fjmsM_W-82" value="&lt;font style=&quot;font-size: 15px;&quot;&gt;&lt;span style=&quot;font-size: 15px;&quot;&gt;W2.grad&lt;/span&gt;&lt;/font&gt;" style="rounded=1;whiteSpace=wrap;html=1;fontFamily=Comic Sans MS;fontSize=15;strokeColor=none;" parent="1" vertex="1">
          <mxGeometry x="490" y="1055" width="120" height="40" as="geometry" />
        </mxCell>
        <mxCell id="fIth8sYgdClS8fjmsM_W-83" value="&lt;font style=&quot;font-size: 15px;&quot;&gt;&lt;span style=&quot;font-size: 15px;&quot;&gt;W3.grad&lt;/span&gt;&lt;/font&gt;" style="rounded=1;whiteSpace=wrap;html=1;fontFamily=Comic Sans MS;fontSize=15;strokeColor=none;" parent="1" vertex="1">
          <mxGeometry x="640" y="1055" width="120" height="40" as="geometry" />
        </mxCell>
        <mxCell id="fIth8sYgdClS8fjmsM_W-84" value="" style="group" parent="1" vertex="1" connectable="0">
          <mxGeometry x="110" y="780" width="140" height="110" as="geometry" />
        </mxCell>
        <mxCell id="fIth8sYgdClS8fjmsM_W-85" value="4" style="rounded=0;whiteSpace=wrap;html=1;fontSize=20;fontFamily=Comic Sans MS;fillColor=#000000;fontColor=#ffffff;" parent="fIth8sYgdClS8fjmsM_W-84" vertex="1">
          <mxGeometry y="20" width="40" height="40" as="geometry" />
        </mxCell>
        <mxCell id="fIth8sYgdClS8fjmsM_W-86" value="1" style="rounded=0;whiteSpace=wrap;html=1;fontSize=20;fontFamily=Comic Sans MS;fillColor=#000000;fontColor=#ffffff;" parent="fIth8sYgdClS8fjmsM_W-84" vertex="1">
          <mxGeometry x="50" y="20" width="40" height="40" as="geometry" />
        </mxCell>
        <mxCell id="fIth8sYgdClS8fjmsM_W-87" value="8" style="rounded=0;whiteSpace=wrap;html=1;fontSize=20;fontFamily=Comic Sans MS;fillColor=#000000;fontColor=#ffffff;" parent="fIth8sYgdClS8fjmsM_W-84" vertex="1">
          <mxGeometry x="100" y="20" width="40" height="40" as="geometry" />
        </mxCell>
        <mxCell id="fIth8sYgdClS8fjmsM_W-91" value="&lt;font color=&quot;#99ff99&quot; style=&quot;font-size: 20px;&quot; face=&quot;Comic Sans MS&quot;&gt;Input&lt;/font&gt;" style="text;html=1;strokeColor=none;fillColor=none;align=center;verticalAlign=middle;whiteSpace=wrap;rounded=0;" parent="fIth8sYgdClS8fjmsM_W-84" vertex="1">
          <mxGeometry x="25" y="90" width="90" height="20" as="geometry" />
        </mxCell>
        <mxCell id="fIth8sYgdClS8fjmsM_W-92" value="" style="endArrow=classic;html=1;rounded=0;entryX=0;entryY=0.5;entryDx=0;entryDy=0;" parent="1" target="fIth8sYgdClS8fjmsM_W-58" edge="1">
          <mxGeometry width="50" height="50" relative="1" as="geometry">
            <mxPoint x="260" y="830" as="sourcePoint" />
            <mxPoint x="320" y="730" as="targetPoint" />
          </mxGeometry>
        </mxCell>
        <mxCell id="fIth8sYgdClS8fjmsM_W-93" value="Node1" style="text;html=1;strokeColor=none;fillColor=none;align=center;verticalAlign=middle;whiteSpace=wrap;rounded=0;fontFamily=Comic Sans MS;fontSize=20;" parent="1" vertex="1">
          <mxGeometry x="80" y="1095" width="60" height="30" as="geometry" />
        </mxCell>
        <mxCell id="fIth8sYgdClS8fjmsM_W-94" value="" style="rounded=1;whiteSpace=wrap;html=1;" parent="1" vertex="1">
          <mxGeometry x="30" y="1280" width="1080" height="430" as="geometry" />
        </mxCell>
        <mxCell id="fIth8sYgdClS8fjmsM_W-95" style="edgeStyle=orthogonalEdgeStyle;rounded=0;orthogonalLoop=1;jettySize=auto;html=1;exitX=1;exitY=0.5;exitDx=0;exitDy=0;entryX=0;entryY=0.5;entryDx=0;entryDy=0;" parent="1" source="fIth8sYgdClS8fjmsM_W-97" target="fIth8sYgdClS8fjmsM_W-100" edge="1">
          <mxGeometry relative="1" as="geometry" />
        </mxCell>
        <mxCell id="fIth8sYgdClS8fjmsM_W-96" style="edgeStyle=orthogonalEdgeStyle;rounded=0;orthogonalLoop=1;jettySize=auto;html=1;exitX=0.5;exitY=1;exitDx=0;exitDy=0;entryX=0.5;entryY=0;entryDx=0;entryDy=0;" parent="1" source="fIth8sYgdClS8fjmsM_W-97" target="fIth8sYgdClS8fjmsM_W-110" edge="1">
          <mxGeometry relative="1" as="geometry" />
        </mxCell>
        <mxCell id="fIth8sYgdClS8fjmsM_W-97" value="&lt;font style=&quot;font-size: 20px;&quot; face=&quot;Comic Sans MS&quot;&gt;Forward1&lt;/font&gt;" style="rounded=1;whiteSpace=wrap;html=1;" parent="1" vertex="1">
          <mxGeometry x="350" y="1390" width="120" height="60" as="geometry" />
        </mxCell>
        <mxCell id="fIth8sYgdClS8fjmsM_W-98" style="edgeStyle=orthogonalEdgeStyle;rounded=0;orthogonalLoop=1;jettySize=auto;html=1;exitX=1;exitY=0.5;exitDx=0;exitDy=0;entryX=0;entryY=0.5;entryDx=0;entryDy=0;" parent="1" source="fIth8sYgdClS8fjmsM_W-100" target="fIth8sYgdClS8fjmsM_W-102" edge="1">
          <mxGeometry relative="1" as="geometry" />
        </mxCell>
        <mxCell id="fIth8sYgdClS8fjmsM_W-99" style="edgeStyle=orthogonalEdgeStyle;rounded=0;orthogonalLoop=1;jettySize=auto;html=1;exitX=0.5;exitY=1;exitDx=0;exitDy=0;" parent="1" source="fIth8sYgdClS8fjmsM_W-100" target="fIth8sYgdClS8fjmsM_W-108" edge="1">
          <mxGeometry relative="1" as="geometry" />
        </mxCell>
        <mxCell id="fIth8sYgdClS8fjmsM_W-100" value="&lt;font style=&quot;font-size: 20px;&quot; face=&quot;Comic Sans MS&quot;&gt;Forward2&lt;/font&gt;" style="rounded=1;whiteSpace=wrap;html=1;" parent="1" vertex="1">
          <mxGeometry x="500" y="1390" width="120" height="60" as="geometry" />
        </mxCell>
        <mxCell id="fIth8sYgdClS8fjmsM_W-101" style="edgeStyle=orthogonalEdgeStyle;rounded=0;orthogonalLoop=1;jettySize=auto;html=1;entryX=0.5;entryY=0;entryDx=0;entryDy=0;" parent="1" source="fIth8sYgdClS8fjmsM_W-102" target="fIth8sYgdClS8fjmsM_W-105" edge="1">
          <mxGeometry relative="1" as="geometry" />
        </mxCell>
        <mxCell id="fIth8sYgdClS8fjmsM_W-102" value="&lt;font style=&quot;font-size: 20px;&quot; face=&quot;Comic Sans MS&quot;&gt;Forward3&lt;/font&gt;" style="rounded=1;whiteSpace=wrap;html=1;" parent="1" vertex="1">
          <mxGeometry x="650" y="1390" width="120" height="60" as="geometry" />
        </mxCell>
        <mxCell id="fIth8sYgdClS8fjmsM_W-103" style="edgeStyle=orthogonalEdgeStyle;rounded=0;orthogonalLoop=1;jettySize=auto;html=1;exitX=0;exitY=0.5;exitDx=0;exitDy=0;" parent="1" source="fIth8sYgdClS8fjmsM_W-105" target="fIth8sYgdClS8fjmsM_W-108" edge="1">
          <mxGeometry relative="1" as="geometry" />
        </mxCell>
        <mxCell id="fIth8sYgdClS8fjmsM_W-104" style="edgeStyle=orthogonalEdgeStyle;rounded=0;orthogonalLoop=1;jettySize=auto;html=1;exitX=0.5;exitY=1;exitDx=0;exitDy=0;entryX=0.5;entryY=0;entryDx=0;entryDy=0;" parent="1" source="fIth8sYgdClS8fjmsM_W-105" target="fIth8sYgdClS8fjmsM_W-122" edge="1">
          <mxGeometry relative="1" as="geometry" />
        </mxCell>
        <mxCell id="fIth8sYgdClS8fjmsM_W-105" value="&lt;font style=&quot;font-size: 20px;&quot; face=&quot;Comic Sans MS&quot;&gt;Backward3&lt;/font&gt;" style="rounded=1;whiteSpace=wrap;html=1;" parent="1" vertex="1">
          <mxGeometry x="650" y="1530" width="120" height="60" as="geometry" />
        </mxCell>
        <mxCell id="fIth8sYgdClS8fjmsM_W-106" style="edgeStyle=orthogonalEdgeStyle;rounded=0;orthogonalLoop=1;jettySize=auto;html=1;exitX=0;exitY=0.5;exitDx=0;exitDy=0;" parent="1" source="fIth8sYgdClS8fjmsM_W-108" target="fIth8sYgdClS8fjmsM_W-110" edge="1">
          <mxGeometry relative="1" as="geometry" />
        </mxCell>
        <mxCell id="fIth8sYgdClS8fjmsM_W-107" style="edgeStyle=orthogonalEdgeStyle;rounded=0;orthogonalLoop=1;jettySize=auto;html=1;exitX=0.5;exitY=1;exitDx=0;exitDy=0;entryX=0.5;entryY=0;entryDx=0;entryDy=0;" parent="1" source="fIth8sYgdClS8fjmsM_W-108" target="fIth8sYgdClS8fjmsM_W-121" edge="1">
          <mxGeometry relative="1" as="geometry" />
        </mxCell>
        <mxCell id="fIth8sYgdClS8fjmsM_W-108" value="&lt;font style=&quot;font-size: 20px;&quot; face=&quot;Comic Sans MS&quot;&gt;Backward2&lt;/font&gt;" style="rounded=1;whiteSpace=wrap;html=1;" parent="1" vertex="1">
          <mxGeometry x="500" y="1530" width="120" height="60" as="geometry" />
        </mxCell>
        <mxCell id="fIth8sYgdClS8fjmsM_W-109" style="edgeStyle=orthogonalEdgeStyle;rounded=0;orthogonalLoop=1;jettySize=auto;html=1;exitX=0.5;exitY=1;exitDx=0;exitDy=0;entryX=0.5;entryY=0;entryDx=0;entryDy=0;" parent="1" source="fIth8sYgdClS8fjmsM_W-110" target="fIth8sYgdClS8fjmsM_W-120" edge="1">
          <mxGeometry relative="1" as="geometry">
            <mxPoint x="410" y="1620" as="targetPoint" />
          </mxGeometry>
        </mxCell>
        <mxCell id="fIth8sYgdClS8fjmsM_W-110" value="&lt;font style=&quot;font-size: 20px;&quot; face=&quot;Comic Sans MS&quot;&gt;Backward1&lt;/font&gt;" style="rounded=1;whiteSpace=wrap;html=1;" parent="1" vertex="1">
          <mxGeometry x="350" y="1530" width="120" height="60" as="geometry" />
        </mxCell>
        <mxCell id="PSGuO14oiP5YhkY9rEZN-2" style="rounded=0;orthogonalLoop=1;jettySize=auto;html=1;exitX=0;exitY=0.5;exitDx=0;exitDy=0;entryX=1;entryY=0.5;entryDx=0;entryDy=0;" parent="1" source="fIth8sYgdClS8fjmsM_W-111" target="fIth8sYgdClS8fjmsM_W-105" edge="1">
          <mxGeometry relative="1" as="geometry" />
        </mxCell>
        <mxCell id="fIth8sYgdClS8fjmsM_W-111" value="&lt;font style=&quot;font-size: 20px;&quot; face=&quot;Comic Sans MS&quot;&gt;loss&lt;br&gt;&lt;/font&gt;" style="rounded=1;whiteSpace=wrap;html=1;" parent="1" vertex="1">
          <mxGeometry x="820" y="1460" width="120" height="60" as="geometry" />
        </mxCell>
        <mxCell id="fIth8sYgdClS8fjmsM_W-112" value="" style="endArrow=classic;html=1;rounded=0;entryX=0;entryY=0.5;entryDx=0;entryDy=0;exitX=1;exitY=0.5;exitDx=0;exitDy=0;" parent="1" source="fIth8sYgdClS8fjmsM_W-102" target="fIth8sYgdClS8fjmsM_W-111" edge="1">
          <mxGeometry width="50" height="50" relative="1" as="geometry">
            <mxPoint x="730" y="1570" as="sourcePoint" />
            <mxPoint x="780" y="1520" as="targetPoint" />
          </mxGeometry>
        </mxCell>
        <mxCell id="fIth8sYgdClS8fjmsM_W-113" value="" style="endArrow=classic;html=1;rounded=0;exitX=1;exitY=0.5;exitDx=0;exitDy=0;" parent="1" source="fIth8sYgdClS8fjmsM_W-105" edge="1">
          <mxGeometry width="50" height="50" relative="1" as="geometry">
            <mxPoint x="780" y="1430" as="sourcePoint" />
            <mxPoint x="770" y="1560" as="targetPoint" />
          </mxGeometry>
        </mxCell>
        <mxCell id="fIth8sYgdClS8fjmsM_W-114" value="" style="endArrow=classic;html=1;rounded=0;exitX=0.992;exitY=0.358;exitDx=0;exitDy=0;exitPerimeter=0;" parent="1" source="fIth8sYgdClS8fjmsM_W-102" edge="1">
          <mxGeometry width="50" height="50" relative="1" as="geometry">
            <mxPoint x="730" y="1570" as="sourcePoint" />
            <mxPoint x="880" y="1410" as="targetPoint" />
          </mxGeometry>
        </mxCell>
        <mxCell id="fIth8sYgdClS8fjmsM_W-115" value="&lt;font style=&quot;font-size: 20px;&quot; face=&quot;Comic Sans MS&quot;&gt;&amp;nbsp;1, 6, 2&lt;/font&gt;" style="text;html=1;strokeColor=none;fillColor=none;align=center;verticalAlign=middle;whiteSpace=wrap;rounded=0;" parent="1" vertex="1">
          <mxGeometry x="880" y="1390" width="150" height="40" as="geometry" />
        </mxCell>
        <mxCell id="fIth8sYgdClS8fjmsM_W-116" value="&lt;font color=&quot;#99ff99&quot; style=&quot;font-size: 20px;&quot; face=&quot;Comic Sans MS&quot;&gt;Output&lt;/font&gt;" style="text;html=1;strokeColor=none;fillColor=none;align=center;verticalAlign=middle;whiteSpace=wrap;rounded=0;" parent="1" vertex="1">
          <mxGeometry x="910" y="1430" width="90" height="20" as="geometry" />
        </mxCell>
        <mxCell id="fIth8sYgdClS8fjmsM_W-117" value="&lt;font style=&quot;font-size: 20px;&quot; face=&quot;Comic Sans MS&quot;&gt;7, 6, 2&lt;/font&gt;" style="text;html=1;strokeColor=none;fillColor=none;align=center;verticalAlign=middle;whiteSpace=wrap;rounded=0;" parent="1" vertex="1">
          <mxGeometry x="940" y="1540" width="150" height="40" as="geometry" />
        </mxCell>
        <mxCell id="fIth8sYgdClS8fjmsM_W-118" value="" style="endArrow=classic;html=1;rounded=0;exitX=0;exitY=0.5;exitDx=0;exitDy=0;entryX=0.75;entryY=1;entryDx=0;entryDy=0;" parent="1" source="fIth8sYgdClS8fjmsM_W-117" target="fIth8sYgdClS8fjmsM_W-111" edge="1">
          <mxGeometry width="50" height="50" relative="1" as="geometry">
            <mxPoint x="750" y="1540" as="sourcePoint" />
            <mxPoint x="800" y="1490" as="targetPoint" />
          </mxGeometry>
        </mxCell>
        <mxCell id="fIth8sYgdClS8fjmsM_W-119" value="&lt;font style=&quot;font-size: 20px;&quot; face=&quot;Comic Sans MS&quot;&gt;Target&lt;/font&gt;" style="text;html=1;strokeColor=none;fillColor=none;align=center;verticalAlign=middle;whiteSpace=wrap;rounded=0;fontColor=#FFD966;" parent="1" vertex="1">
          <mxGeometry x="955" y="1590" width="120" height="20" as="geometry" />
        </mxCell>
        <mxCell id="fIth8sYgdClS8fjmsM_W-120" value="&lt;font style=&quot;font-size: 15px;&quot;&gt;&lt;span style=&quot;font-size: 15px;&quot;&gt;W1.grad&lt;/span&gt;&lt;/font&gt;" style="rounded=1;whiteSpace=wrap;html=1;fontFamily=Comic Sans MS;fontSize=15;strokeColor=none;" parent="1" vertex="1">
          <mxGeometry x="350" y="1630" width="120" height="40" as="geometry" />
        </mxCell>
        <mxCell id="fIth8sYgdClS8fjmsM_W-121" value="&lt;font style=&quot;font-size: 15px;&quot;&gt;&lt;span style=&quot;font-size: 15px;&quot;&gt;W2.grad&lt;/span&gt;&lt;/font&gt;" style="rounded=1;whiteSpace=wrap;html=1;fontFamily=Comic Sans MS;fontSize=15;strokeColor=none;" parent="1" vertex="1">
          <mxGeometry x="500" y="1635" width="120" height="40" as="geometry" />
        </mxCell>
        <mxCell id="fIth8sYgdClS8fjmsM_W-122" value="&lt;font style=&quot;font-size: 15px;&quot;&gt;&lt;span style=&quot;font-size: 15px;&quot;&gt;W3.grad&lt;/span&gt;&lt;/font&gt;" style="rounded=1;whiteSpace=wrap;html=1;fontFamily=Comic Sans MS;fontSize=15;strokeColor=none;" parent="1" vertex="1">
          <mxGeometry x="650" y="1635" width="120" height="40" as="geometry" />
        </mxCell>
        <mxCell id="fIth8sYgdClS8fjmsM_W-123" value="" style="group" parent="1" vertex="1" connectable="0">
          <mxGeometry x="120" y="1330" width="140" height="90" as="geometry" />
        </mxCell>
        <mxCell id="fIth8sYgdClS8fjmsM_W-127" value="7" style="rounded=0;whiteSpace=wrap;html=1;fontSize=20;fontFamily=Comic Sans MS;fillColor=#000000;fontColor=#ffffff;" parent="fIth8sYgdClS8fjmsM_W-123" vertex="1">
          <mxGeometry y="50" width="40" height="40" as="geometry" />
        </mxCell>
        <mxCell id="fIth8sYgdClS8fjmsM_W-128" value="6" style="rounded=0;whiteSpace=wrap;html=1;fontSize=20;fontFamily=Comic Sans MS;fillColor=#000000;fontColor=#ffffff;" parent="fIth8sYgdClS8fjmsM_W-123" vertex="1">
          <mxGeometry x="50" y="50" width="40" height="40" as="geometry" />
        </mxCell>
        <mxCell id="fIth8sYgdClS8fjmsM_W-129" value="2" style="rounded=0;whiteSpace=wrap;html=1;fontSize=20;fontFamily=Comic Sans MS;fillColor=#000000;fontColor=#ffffff;" parent="fIth8sYgdClS8fjmsM_W-123" vertex="1">
          <mxGeometry x="100" y="50" width="40" height="40" as="geometry" />
        </mxCell>
        <mxCell id="fIth8sYgdClS8fjmsM_W-130" value="&lt;font color=&quot;#99ff99&quot; style=&quot;font-size: 20px;&quot; face=&quot;Comic Sans MS&quot;&gt;Input&lt;/font&gt;" style="text;html=1;strokeColor=none;fillColor=none;align=center;verticalAlign=middle;whiteSpace=wrap;rounded=0;" parent="1" vertex="1">
          <mxGeometry x="145" y="1450" width="90" height="20" as="geometry" />
        </mxCell>
        <mxCell id="fIth8sYgdClS8fjmsM_W-131" value="" style="endArrow=classic;html=1;rounded=0;entryX=0;entryY=0.5;entryDx=0;entryDy=0;" parent="1" target="fIth8sYgdClS8fjmsM_W-97" edge="1">
          <mxGeometry width="50" height="50" relative="1" as="geometry">
            <mxPoint x="270" y="1410" as="sourcePoint" />
            <mxPoint x="330" y="1310" as="targetPoint" />
          </mxGeometry>
        </mxCell>
        <mxCell id="fIth8sYgdClS8fjmsM_W-132" value="Node2" style="text;html=1;strokeColor=none;fillColor=none;align=center;verticalAlign=middle;whiteSpace=wrap;rounded=0;fontFamily=Comic Sans MS;fontSize=20;" parent="1" vertex="1">
          <mxGeometry x="90" y="1675" width="60" height="30" as="geometry" />
        </mxCell>
        <mxCell id="fIth8sYgdClS8fjmsM_W-136" style="rounded=0;orthogonalLoop=1;jettySize=auto;html=1;exitX=0.5;exitY=1;exitDx=0;exitDy=0;entryX=0.5;entryY=0;entryDx=0;entryDy=0;strokeColor=#6c8ebf;fillColor=#dae8fc;dashed=1;strokeWidth=3;" parent="1" source="fIth8sYgdClS8fjmsM_W-134" target="fIth8sYgdClS8fjmsM_W-128" edge="1">
          <mxGeometry relative="1" as="geometry" />
        </mxCell>
        <mxCell id="fIth8sYgdClS8fjmsM_W-134" value="数据拆分" style="text;html=1;strokeColor=none;fillColor=none;align=center;verticalAlign=middle;whiteSpace=wrap;rounded=0;fontFamily=Comic Sans MS;fontColor=#6c8ebf;fontSize=20;" parent="1" vertex="1">
          <mxGeometry x="175" y="1180" width="165" height="50" as="geometry" />
        </mxCell>
        <mxCell id="fIth8sYgdClS8fjmsM_W-135" value="" style="endArrow=classic;html=1;entryX=0.5;entryY=1;entryDx=0;entryDy=0;exitX=0.5;exitY=0;exitDx=0;exitDy=0;fillColor=#dae8fc;strokeColor=#6c8ebf;rounded=0;dashed=1;strokeWidth=3;" parent="1" source="fIth8sYgdClS8fjmsM_W-134" target="fIth8sYgdClS8fjmsM_W-86" edge="1">
          <mxGeometry width="50" height="50" relative="1" as="geometry">
            <mxPoint x="570" y="1290" as="sourcePoint" />
            <mxPoint x="620" y="1240" as="targetPoint" />
          </mxGeometry>
        </mxCell>
        <mxCell id="fIth8sYgdClS8fjmsM_W-138" style="rounded=0;orthogonalLoop=1;jettySize=auto;html=1;exitX=0.5;exitY=0;exitDx=0;exitDy=0;entryX=1;entryY=1;entryDx=0;entryDy=0;strokeColor=#99ff99;fillColor=#d5e8d4;dashed=1;strokeWidth=3;" parent="1" source="fIth8sYgdClS8fjmsM_W-137" target="fIth8sYgdClS8fjmsM_W-66" edge="1">
          <mxGeometry relative="1" as="geometry" />
        </mxCell>
        <mxCell id="fIth8sYgdClS8fjmsM_W-139" style="rounded=0;orthogonalLoop=1;jettySize=auto;html=1;exitX=0.5;exitY=1;exitDx=0;exitDy=0;entryX=1;entryY=0;entryDx=0;entryDy=0;strokeColor=#99ff99;fillColor=#d5e8d4;dashed=1;strokeWidth=3;" parent="1" source="fIth8sYgdClS8fjmsM_W-137" target="fIth8sYgdClS8fjmsM_W-102" edge="1">
          <mxGeometry relative="1" as="geometry" />
        </mxCell>
        <mxCell id="fIth8sYgdClS8fjmsM_W-137" value="更新参数" style="text;html=1;strokeColor=none;fillColor=none;align=center;verticalAlign=middle;whiteSpace=wrap;rounded=0;fontFamily=Comic Sans MS;fontColor=#99ff99;fontSize=20;" parent="1" vertex="1">
          <mxGeometry x="715" y="1180" width="165" height="50" as="geometry" />
        </mxCell>
        <mxCell id="fIth8sYgdClS8fjmsM_W-142" style="edgeStyle=orthogonalEdgeStyle;rounded=0;orthogonalLoop=1;jettySize=auto;html=1;exitX=1;exitY=0.5;exitDx=0;exitDy=0;entryX=0;entryY=0.5;entryDx=0;entryDy=0;" parent="1" source="fIth8sYgdClS8fjmsM_W-144" target="fIth8sYgdClS8fjmsM_W-147" edge="1">
          <mxGeometry relative="1" as="geometry" />
        </mxCell>
        <mxCell id="fIth8sYgdClS8fjmsM_W-143" style="edgeStyle=orthogonalEdgeStyle;rounded=0;orthogonalLoop=1;jettySize=auto;html=1;exitX=0.5;exitY=1;exitDx=0;exitDy=0;entryX=0.5;entryY=0;entryDx=0;entryDy=0;" parent="1" source="fIth8sYgdClS8fjmsM_W-144" target="fIth8sYgdClS8fjmsM_W-157" edge="1">
          <mxGeometry relative="1" as="geometry" />
        </mxCell>
        <mxCell id="fIth8sYgdClS8fjmsM_W-144" value="&lt;font style=&quot;font-size: 20px;&quot; face=&quot;Comic Sans MS&quot;&gt;Forward1&lt;/font&gt;" style="rounded=1;whiteSpace=wrap;html=1;" parent="1" vertex="1">
          <mxGeometry x="1830" y="340" width="120" height="60" as="geometry" />
        </mxCell>
        <mxCell id="fIth8sYgdClS8fjmsM_W-145" style="edgeStyle=orthogonalEdgeStyle;rounded=0;orthogonalLoop=1;jettySize=auto;html=1;exitX=1;exitY=0.5;exitDx=0;exitDy=0;entryX=0;entryY=0.5;entryDx=0;entryDy=0;" parent="1" source="fIth8sYgdClS8fjmsM_W-147" target="fIth8sYgdClS8fjmsM_W-149" edge="1">
          <mxGeometry relative="1" as="geometry" />
        </mxCell>
        <mxCell id="fIth8sYgdClS8fjmsM_W-146" style="edgeStyle=orthogonalEdgeStyle;rounded=0;orthogonalLoop=1;jettySize=auto;html=1;exitX=0.5;exitY=1;exitDx=0;exitDy=0;" parent="1" source="fIth8sYgdClS8fjmsM_W-147" target="fIth8sYgdClS8fjmsM_W-155" edge="1">
          <mxGeometry relative="1" as="geometry" />
        </mxCell>
        <mxCell id="fIth8sYgdClS8fjmsM_W-147" value="&lt;font style=&quot;font-size: 20px;&quot; face=&quot;Comic Sans MS&quot;&gt;Forward2&lt;/font&gt;" style="rounded=1;whiteSpace=wrap;html=1;" parent="1" vertex="1">
          <mxGeometry x="1988" y="340" width="120" height="60" as="geometry" />
        </mxCell>
        <mxCell id="fIth8sYgdClS8fjmsM_W-148" style="edgeStyle=orthogonalEdgeStyle;rounded=0;orthogonalLoop=1;jettySize=auto;html=1;entryX=0.5;entryY=0;entryDx=0;entryDy=0;" parent="1" source="fIth8sYgdClS8fjmsM_W-149" target="fIth8sYgdClS8fjmsM_W-152" edge="1">
          <mxGeometry relative="1" as="geometry" />
        </mxCell>
        <mxCell id="fIth8sYgdClS8fjmsM_W-149" value="&lt;font style=&quot;font-size: 20px;&quot; face=&quot;Comic Sans MS&quot;&gt;Forward3&lt;/font&gt;" style="rounded=1;whiteSpace=wrap;html=1;" parent="1" vertex="1">
          <mxGeometry x="2138" y="340" width="120" height="60" as="geometry" />
        </mxCell>
        <mxCell id="fIth8sYgdClS8fjmsM_W-150" style="edgeStyle=orthogonalEdgeStyle;rounded=0;orthogonalLoop=1;jettySize=auto;html=1;exitX=0;exitY=0.5;exitDx=0;exitDy=0;" parent="1" source="fIth8sYgdClS8fjmsM_W-152" target="fIth8sYgdClS8fjmsM_W-155" edge="1">
          <mxGeometry relative="1" as="geometry" />
        </mxCell>
        <mxCell id="fIth8sYgdClS8fjmsM_W-151" style="edgeStyle=orthogonalEdgeStyle;rounded=0;orthogonalLoop=1;jettySize=auto;html=1;exitX=0.5;exitY=1;exitDx=0;exitDy=0;entryX=0.5;entryY=0;entryDx=0;entryDy=0;" parent="1" source="fIth8sYgdClS8fjmsM_W-152" target="fIth8sYgdClS8fjmsM_W-169" edge="1">
          <mxGeometry relative="1" as="geometry" />
        </mxCell>
        <mxCell id="fIth8sYgdClS8fjmsM_W-152" value="&lt;font style=&quot;font-size: 20px;&quot; face=&quot;Comic Sans MS&quot;&gt;Backward3&lt;/font&gt;" style="rounded=1;whiteSpace=wrap;html=1;" parent="1" vertex="1">
          <mxGeometry x="2138" y="436" width="120" height="60" as="geometry" />
        </mxCell>
        <mxCell id="fIth8sYgdClS8fjmsM_W-153" style="edgeStyle=orthogonalEdgeStyle;rounded=0;orthogonalLoop=1;jettySize=auto;html=1;exitX=0;exitY=0.5;exitDx=0;exitDy=0;" parent="1" source="fIth8sYgdClS8fjmsM_W-155" target="fIth8sYgdClS8fjmsM_W-157" edge="1">
          <mxGeometry relative="1" as="geometry" />
        </mxCell>
        <mxCell id="fIth8sYgdClS8fjmsM_W-154" style="edgeStyle=orthogonalEdgeStyle;rounded=0;orthogonalLoop=1;jettySize=auto;html=1;exitX=0.5;exitY=1;exitDx=0;exitDy=0;entryX=0.5;entryY=0;entryDx=0;entryDy=0;" parent="1" source="fIth8sYgdClS8fjmsM_W-155" target="fIth8sYgdClS8fjmsM_W-168" edge="1">
          <mxGeometry relative="1" as="geometry" />
        </mxCell>
        <mxCell id="fIth8sYgdClS8fjmsM_W-155" value="&lt;font style=&quot;font-size: 20px;&quot; face=&quot;Comic Sans MS&quot;&gt;Backward2&lt;/font&gt;" style="rounded=1;whiteSpace=wrap;html=1;" parent="1" vertex="1">
          <mxGeometry x="1988" y="436" width="120" height="60" as="geometry" />
        </mxCell>
        <mxCell id="fIth8sYgdClS8fjmsM_W-156" style="edgeStyle=orthogonalEdgeStyle;rounded=0;orthogonalLoop=1;jettySize=auto;html=1;exitX=0.5;exitY=1;exitDx=0;exitDy=0;entryX=0.5;entryY=0;entryDx=0;entryDy=0;" parent="1" source="fIth8sYgdClS8fjmsM_W-157" target="fIth8sYgdClS8fjmsM_W-167" edge="1">
          <mxGeometry relative="1" as="geometry">
            <mxPoint x="1898" y="526" as="targetPoint" />
          </mxGeometry>
        </mxCell>
        <mxCell id="fIth8sYgdClS8fjmsM_W-157" value="&lt;font style=&quot;font-size: 20px;&quot; face=&quot;Comic Sans MS&quot;&gt;Backward1&lt;/font&gt;" style="rounded=1;whiteSpace=wrap;html=1;" parent="1" vertex="1">
          <mxGeometry x="1830" y="436" width="120" height="60" as="geometry" />
        </mxCell>
        <mxCell id="PSGuO14oiP5YhkY9rEZN-4" style="rounded=0;orthogonalLoop=1;jettySize=auto;html=1;exitX=0;exitY=0.5;exitDx=0;exitDy=0;" parent="1" source="fIth8sYgdClS8fjmsM_W-158" target="fIth8sYgdClS8fjmsM_W-152" edge="1">
          <mxGeometry relative="1" as="geometry" />
        </mxCell>
        <mxCell id="fIth8sYgdClS8fjmsM_W-158" value="&lt;font style=&quot;font-size: 20px;&quot; face=&quot;Comic Sans MS&quot;&gt;loss&lt;br&gt;&lt;/font&gt;" style="rounded=1;whiteSpace=wrap;html=1;" parent="1" vertex="1">
          <mxGeometry x="2308" y="400" width="120" height="60" as="geometry" />
        </mxCell>
        <mxCell id="fIth8sYgdClS8fjmsM_W-159" value="" style="endArrow=classic;html=1;rounded=0;entryX=0;entryY=0.5;entryDx=0;entryDy=0;exitX=1;exitY=0.5;exitDx=0;exitDy=0;" parent="1" source="fIth8sYgdClS8fjmsM_W-149" target="fIth8sYgdClS8fjmsM_W-158" edge="1">
          <mxGeometry width="50" height="50" relative="1" as="geometry">
            <mxPoint x="2218" y="520" as="sourcePoint" />
            <mxPoint x="2268" y="470" as="targetPoint" />
          </mxGeometry>
        </mxCell>
        <mxCell id="fIth8sYgdClS8fjmsM_W-160" value="" style="endArrow=classic;html=1;rounded=0;exitX=0;exitY=0.5;exitDx=0;exitDy=0;entryX=0;entryY=0.5;entryDx=0;entryDy=0;" parent="1" source="fIth8sYgdClS8fjmsM_W-158" target="fIth8sYgdClS8fjmsM_W-158" edge="1">
          <mxGeometry width="50" height="50" relative="1" as="geometry">
            <mxPoint x="2268" y="380" as="sourcePoint" />
            <mxPoint x="2318" y="440" as="targetPoint" />
            <Array as="points" />
          </mxGeometry>
        </mxCell>
        <mxCell id="fIth8sYgdClS8fjmsM_W-221" style="edgeStyle=orthogonalEdgeStyle;rounded=0;orthogonalLoop=1;jettySize=auto;html=1;exitX=0.5;exitY=1;exitDx=0;exitDy=0;entryX=0.5;entryY=0;entryDx=0;entryDy=0;" parent="1" source="fIth8sYgdClS8fjmsM_W-166" target="fIth8sYgdClS8fjmsM_W-158" edge="1">
          <mxGeometry relative="1" as="geometry" />
        </mxCell>
        <mxCell id="fIth8sYgdClS8fjmsM_W-166" value="&lt;font style=&quot;font-size: 20px;&quot; face=&quot;Comic Sans MS&quot;&gt;Target&lt;/font&gt;" style="text;html=1;strokeColor=none;fillColor=none;align=center;verticalAlign=middle;whiteSpace=wrap;rounded=0;fontColor=default;" parent="1" vertex="1">
          <mxGeometry x="2308" y="360" width="120" height="20" as="geometry" />
        </mxCell>
        <mxCell id="fIth8sYgdClS8fjmsM_W-167" value="&lt;font style=&quot;font-size: 15px;&quot;&gt;&lt;span style=&quot;font-size: 15px;&quot;&gt;W1.grad&lt;/span&gt;&lt;/font&gt;" style="rounded=1;whiteSpace=wrap;html=1;fontFamily=Comic Sans MS;fontSize=15;strokeColor=none;" parent="1" vertex="1">
          <mxGeometry x="1830" y="536" width="120" height="40" as="geometry" />
        </mxCell>
        <mxCell id="fIth8sYgdClS8fjmsM_W-168" value="&lt;font style=&quot;font-size: 15px;&quot;&gt;&lt;span style=&quot;font-size: 15px;&quot;&gt;W2.grad&lt;/span&gt;&lt;/font&gt;" style="rounded=1;whiteSpace=wrap;html=1;fontFamily=Comic Sans MS;fontSize=15;strokeColor=none;" parent="1" vertex="1">
          <mxGeometry x="1988" y="541" width="120" height="40" as="geometry" />
        </mxCell>
        <mxCell id="fIth8sYgdClS8fjmsM_W-169" value="&lt;font style=&quot;font-size: 15px;&quot;&gt;&lt;span style=&quot;font-size: 15px;&quot;&gt;W3.grad&lt;/span&gt;&lt;/font&gt;" style="rounded=1;whiteSpace=wrap;html=1;fontFamily=Comic Sans MS;fontSize=15;strokeColor=none;" parent="1" vertex="1">
          <mxGeometry x="2138" y="541" width="120" height="40" as="geometry" />
        </mxCell>
        <mxCell id="fIth8sYgdClS8fjmsM_W-175" value="" style="endArrow=classic;html=1;rounded=0;entryX=0;entryY=0.5;entryDx=0;entryDy=0;exitX=1;exitY=0.5;exitDx=0;exitDy=0;" parent="1" source="fIth8sYgdClS8fjmsM_W-174" target="fIth8sYgdClS8fjmsM_W-144" edge="1">
          <mxGeometry width="50" height="50" relative="1" as="geometry">
            <mxPoint x="1758" y="360" as="sourcePoint" />
            <mxPoint x="1818" y="260" as="targetPoint" />
          </mxGeometry>
        </mxCell>
        <mxCell id="fIth8sYgdClS8fjmsM_W-176" value="Node1" style="text;html=1;strokeColor=none;fillColor=none;align=center;verticalAlign=middle;whiteSpace=wrap;rounded=0;fontFamily=Comic Sans MS;fontSize=20;" parent="1" vertex="1">
          <mxGeometry x="1578" y="554" width="60" height="30" as="geometry" />
        </mxCell>
        <mxCell id="fIth8sYgdClS8fjmsM_W-178" style="edgeStyle=orthogonalEdgeStyle;rounded=0;orthogonalLoop=1;jettySize=auto;html=1;exitX=1;exitY=0.5;exitDx=0;exitDy=0;entryX=0;entryY=0.5;entryDx=0;entryDy=0;" parent="1" source="fIth8sYgdClS8fjmsM_W-180" target="fIth8sYgdClS8fjmsM_W-183" edge="1">
          <mxGeometry relative="1" as="geometry" />
        </mxCell>
        <mxCell id="fIth8sYgdClS8fjmsM_W-227" style="edgeStyle=orthogonalEdgeStyle;rounded=0;orthogonalLoop=1;jettySize=auto;html=1;exitX=0.5;exitY=0;exitDx=0;exitDy=0;entryX=0.5;entryY=1;entryDx=0;entryDy=0;" parent="1" source="fIth8sYgdClS8fjmsM_W-180" target="fIth8sYgdClS8fjmsM_W-193" edge="1">
          <mxGeometry relative="1" as="geometry" />
        </mxCell>
        <mxCell id="fIth8sYgdClS8fjmsM_W-180" value="&lt;font style=&quot;font-size: 20px;&quot; face=&quot;Comic Sans MS&quot;&gt;Forward1&lt;/font&gt;" style="rounded=1;whiteSpace=wrap;html=1;" parent="1" vertex="1">
          <mxGeometry x="1830" y="920" width="120" height="60" as="geometry" />
        </mxCell>
        <mxCell id="fIth8sYgdClS8fjmsM_W-181" style="edgeStyle=orthogonalEdgeStyle;rounded=0;orthogonalLoop=1;jettySize=auto;html=1;exitX=1;exitY=0.5;exitDx=0;exitDy=0;entryX=0;entryY=0.5;entryDx=0;entryDy=0;" parent="1" source="fIth8sYgdClS8fjmsM_W-183" target="fIth8sYgdClS8fjmsM_W-185" edge="1">
          <mxGeometry relative="1" as="geometry" />
        </mxCell>
        <mxCell id="fIth8sYgdClS8fjmsM_W-226" style="edgeStyle=orthogonalEdgeStyle;rounded=0;orthogonalLoop=1;jettySize=auto;html=1;exitX=0.5;exitY=0;exitDx=0;exitDy=0;" parent="1" source="fIth8sYgdClS8fjmsM_W-183" target="fIth8sYgdClS8fjmsM_W-191" edge="1">
          <mxGeometry relative="1" as="geometry" />
        </mxCell>
        <mxCell id="fIth8sYgdClS8fjmsM_W-183" value="&lt;font style=&quot;font-size: 20px;&quot; face=&quot;Comic Sans MS&quot;&gt;Forward2&lt;/font&gt;" style="rounded=1;whiteSpace=wrap;html=1;" parent="1" vertex="1">
          <mxGeometry x="1988" y="920" width="120" height="60" as="geometry" />
        </mxCell>
        <mxCell id="fIth8sYgdClS8fjmsM_W-225" style="edgeStyle=orthogonalEdgeStyle;rounded=0;orthogonalLoop=1;jettySize=auto;html=1;exitX=0.5;exitY=0;exitDx=0;exitDy=0;" parent="1" source="fIth8sYgdClS8fjmsM_W-185" target="fIth8sYgdClS8fjmsM_W-188" edge="1">
          <mxGeometry relative="1" as="geometry" />
        </mxCell>
        <mxCell id="fIth8sYgdClS8fjmsM_W-185" value="&lt;font style=&quot;font-size: 20px;&quot; face=&quot;Comic Sans MS&quot;&gt;Forward3&lt;/font&gt;" style="rounded=1;whiteSpace=wrap;html=1;" parent="1" vertex="1">
          <mxGeometry x="2138" y="920" width="120" height="60" as="geometry" />
        </mxCell>
        <mxCell id="fIth8sYgdClS8fjmsM_W-186" style="edgeStyle=orthogonalEdgeStyle;rounded=0;orthogonalLoop=1;jettySize=auto;html=1;exitX=0;exitY=0.5;exitDx=0;exitDy=0;" parent="1" source="fIth8sYgdClS8fjmsM_W-188" target="fIth8sYgdClS8fjmsM_W-191" edge="1">
          <mxGeometry relative="1" as="geometry" />
        </mxCell>
        <mxCell id="fIth8sYgdClS8fjmsM_W-224" style="edgeStyle=orthogonalEdgeStyle;rounded=0;orthogonalLoop=1;jettySize=auto;html=1;exitX=0.5;exitY=0;exitDx=0;exitDy=0;entryX=0.5;entryY=1;entryDx=0;entryDy=0;" parent="1" source="fIth8sYgdClS8fjmsM_W-188" target="fIth8sYgdClS8fjmsM_W-205" edge="1">
          <mxGeometry relative="1" as="geometry" />
        </mxCell>
        <mxCell id="fIth8sYgdClS8fjmsM_W-188" value="&lt;font style=&quot;font-size: 20px;&quot; face=&quot;Comic Sans MS&quot;&gt;Backward3&lt;/font&gt;" style="rounded=1;whiteSpace=wrap;html=1;" parent="1" vertex="1">
          <mxGeometry x="2138" y="790" width="120" height="60" as="geometry" />
        </mxCell>
        <mxCell id="fIth8sYgdClS8fjmsM_W-189" style="edgeStyle=orthogonalEdgeStyle;rounded=0;orthogonalLoop=1;jettySize=auto;html=1;exitX=0;exitY=0.5;exitDx=0;exitDy=0;" parent="1" source="fIth8sYgdClS8fjmsM_W-191" target="fIth8sYgdClS8fjmsM_W-193" edge="1">
          <mxGeometry relative="1" as="geometry" />
        </mxCell>
        <mxCell id="fIth8sYgdClS8fjmsM_W-223" style="edgeStyle=orthogonalEdgeStyle;rounded=0;orthogonalLoop=1;jettySize=auto;html=1;exitX=0.5;exitY=0;exitDx=0;exitDy=0;entryX=0.5;entryY=1;entryDx=0;entryDy=0;" parent="1" source="fIth8sYgdClS8fjmsM_W-191" target="fIth8sYgdClS8fjmsM_W-204" edge="1">
          <mxGeometry relative="1" as="geometry" />
        </mxCell>
        <mxCell id="fIth8sYgdClS8fjmsM_W-191" value="&lt;font style=&quot;font-size: 20px;&quot; face=&quot;Comic Sans MS&quot;&gt;Backward2&lt;/font&gt;" style="rounded=1;whiteSpace=wrap;html=1;" parent="1" vertex="1">
          <mxGeometry x="1988" y="790" width="120" height="60" as="geometry" />
        </mxCell>
        <mxCell id="fIth8sYgdClS8fjmsM_W-222" style="edgeStyle=orthogonalEdgeStyle;rounded=0;orthogonalLoop=1;jettySize=auto;html=1;exitX=0.5;exitY=0;exitDx=0;exitDy=0;entryX=0.5;entryY=1;entryDx=0;entryDy=0;" parent="1" source="fIth8sYgdClS8fjmsM_W-193" target="fIth8sYgdClS8fjmsM_W-203" edge="1">
          <mxGeometry relative="1" as="geometry" />
        </mxCell>
        <mxCell id="fIth8sYgdClS8fjmsM_W-193" value="&lt;font style=&quot;font-size: 20px;&quot; face=&quot;Comic Sans MS&quot;&gt;Backward1&lt;/font&gt;" style="rounded=1;whiteSpace=wrap;html=1;" parent="1" vertex="1">
          <mxGeometry x="1830" y="790" width="120" height="60" as="geometry" />
        </mxCell>
        <mxCell id="PSGuO14oiP5YhkY9rEZN-5" style="rounded=0;orthogonalLoop=1;jettySize=auto;html=1;exitX=0;exitY=0.5;exitDx=0;exitDy=0;entryX=1;entryY=0.5;entryDx=0;entryDy=0;" parent="1" source="fIth8sYgdClS8fjmsM_W-194" target="fIth8sYgdClS8fjmsM_W-185" edge="1">
          <mxGeometry relative="1" as="geometry" />
        </mxCell>
        <mxCell id="fIth8sYgdClS8fjmsM_W-194" value="&lt;font style=&quot;font-size: 20px;&quot; face=&quot;Comic Sans MS&quot;&gt;loss&lt;br&gt;&lt;/font&gt;" style="rounded=1;whiteSpace=wrap;html=1;" parent="1" vertex="1">
          <mxGeometry x="2308" y="840" width="120" height="60" as="geometry" />
        </mxCell>
        <mxCell id="fIth8sYgdClS8fjmsM_W-196" value="" style="endArrow=classic;html=1;rounded=0;exitX=1;exitY=0.5;exitDx=0;exitDy=0;entryX=0;entryY=0.5;entryDx=0;entryDy=0;" parent="1" source="fIth8sYgdClS8fjmsM_W-188" target="fIth8sYgdClS8fjmsM_W-194" edge="1">
          <mxGeometry width="50" height="50" relative="1" as="geometry">
            <mxPoint x="2278" y="960" as="sourcePoint" />
            <mxPoint x="2328" y="1020" as="targetPoint" />
          </mxGeometry>
        </mxCell>
        <mxCell id="fIth8sYgdClS8fjmsM_W-203" value="&lt;font style=&quot;font-size: 15px;&quot;&gt;&lt;span style=&quot;font-size: 15px;&quot;&gt;W1.grad&lt;/span&gt;&lt;/font&gt;" style="rounded=1;whiteSpace=wrap;html=1;fontFamily=Comic Sans MS;fontSize=15;strokeColor=none;" parent="1" vertex="1">
          <mxGeometry x="1830" y="720" width="120" height="40" as="geometry" />
        </mxCell>
        <mxCell id="fIth8sYgdClS8fjmsM_W-204" value="&lt;font style=&quot;font-size: 15px;&quot;&gt;&lt;span style=&quot;font-size: 15px;&quot;&gt;W2.grad&lt;/span&gt;&lt;/font&gt;" style="rounded=1;whiteSpace=wrap;html=1;fontFamily=Comic Sans MS;fontSize=15;strokeColor=none;" parent="1" vertex="1">
          <mxGeometry x="1988" y="720" width="120" height="40" as="geometry" />
        </mxCell>
        <mxCell id="fIth8sYgdClS8fjmsM_W-205" value="&lt;font style=&quot;font-size: 15px;&quot;&gt;&lt;span style=&quot;font-size: 15px;&quot;&gt;W3.grad&lt;/span&gt;&lt;/font&gt;" style="rounded=1;whiteSpace=wrap;html=1;fontFamily=Comic Sans MS;fontSize=15;strokeColor=none;" parent="1" vertex="1">
          <mxGeometry x="2138" y="720" width="120" height="40" as="geometry" />
        </mxCell>
        <mxCell id="fIth8sYgdClS8fjmsM_W-212" value="Node2" style="text;html=1;strokeColor=none;fillColor=none;align=center;verticalAlign=middle;whiteSpace=wrap;rounded=0;fontFamily=Comic Sans MS;fontSize=20;" parent="1" vertex="1">
          <mxGeometry x="1578" y="740" width="60" height="30" as="geometry" />
        </mxCell>
        <mxCell id="fIth8sYgdClS8fjmsM_W-174" value="&lt;font style=&quot;font-size: 20px;&quot; face=&quot;Comic Sans MS&quot;&gt;Input&lt;/font&gt;" style="text;html=1;strokeColor=none;fillColor=none;align=center;verticalAlign=middle;whiteSpace=wrap;rounded=0;" parent="1" vertex="1">
          <mxGeometry x="1654" y="360" width="90" height="20" as="geometry" />
        </mxCell>
        <mxCell id="fIth8sYgdClS8fjmsM_W-229" style="edgeStyle=orthogonalEdgeStyle;rounded=0;orthogonalLoop=1;jettySize=auto;html=1;exitX=0.5;exitY=0;exitDx=0;exitDy=0;entryX=0.5;entryY=1;entryDx=0;entryDy=0;" parent="1" source="fIth8sYgdClS8fjmsM_W-228" target="fIth8sYgdClS8fjmsM_W-194" edge="1">
          <mxGeometry relative="1" as="geometry" />
        </mxCell>
        <mxCell id="fIth8sYgdClS8fjmsM_W-228" value="&lt;font style=&quot;font-size: 20px;&quot; face=&quot;Comic Sans MS&quot;&gt;Target&lt;/font&gt;" style="text;html=1;strokeColor=none;fillColor=none;align=center;verticalAlign=middle;whiteSpace=wrap;rounded=0;fontColor=default;" parent="1" vertex="1">
          <mxGeometry x="2308" y="950" width="120" height="20" as="geometry" />
        </mxCell>
        <mxCell id="fIth8sYgdClS8fjmsM_W-231" style="edgeStyle=orthogonalEdgeStyle;rounded=0;orthogonalLoop=1;jettySize=auto;html=1;exitX=1;exitY=0.5;exitDx=0;exitDy=0;" parent="1" source="fIth8sYgdClS8fjmsM_W-230" target="fIth8sYgdClS8fjmsM_W-180" edge="1">
          <mxGeometry relative="1" as="geometry" />
        </mxCell>
        <mxCell id="fIth8sYgdClS8fjmsM_W-230" value="&lt;font style=&quot;font-size: 20px;&quot; face=&quot;Comic Sans MS&quot;&gt;Input&lt;/font&gt;" style="text;html=1;strokeColor=none;fillColor=none;align=center;verticalAlign=middle;whiteSpace=wrap;rounded=0;" parent="1" vertex="1">
          <mxGeometry x="1654" y="940" width="90" height="20" as="geometry" />
        </mxCell>
        <mxCell id="fIth8sYgdClS8fjmsM_W-234" value="" style="endArrow=classic;startArrow=classic;html=1;rounded=0;entryX=0.5;entryY=1;entryDx=0;entryDy=0;exitX=0.5;exitY=0;exitDx=0;exitDy=0;strokeWidth=3;fillColor=#dae8fc;strokeColor=#6c8ebf;dashed=1;" parent="1" source="fIth8sYgdClS8fjmsM_W-205" target="fIth8sYgdClS8fjmsM_W-169" edge="1">
          <mxGeometry width="50" height="50" relative="1" as="geometry">
            <mxPoint x="1980" y="770" as="sourcePoint" />
            <mxPoint x="2030" y="720" as="targetPoint" />
          </mxGeometry>
        </mxCell>
        <mxCell id="fIth8sYgdClS8fjmsM_W-235" value="" style="endArrow=classic;startArrow=classic;html=1;rounded=0;exitX=0.5;exitY=0;exitDx=0;exitDy=0;entryX=0.5;entryY=1;entryDx=0;entryDy=0;strokeWidth=3;fillColor=#dae8fc;strokeColor=#6c8ebf;dashed=1;" parent="1" source="fIth8sYgdClS8fjmsM_W-204" target="fIth8sYgdClS8fjmsM_W-168" edge="1">
          <mxGeometry width="50" height="50" relative="1" as="geometry">
            <mxPoint x="2047.47" y="715" as="sourcePoint" />
            <mxPoint x="2040" y="660" as="targetPoint" />
          </mxGeometry>
        </mxCell>
        <mxCell id="fIth8sYgdClS8fjmsM_W-236" value="" style="endArrow=classic;startArrow=classic;html=1;rounded=0;exitX=0.5;exitY=0;exitDx=0;exitDy=0;entryX=0.5;entryY=1;entryDx=0;entryDy=0;strokeWidth=3;fillColor=#dae8fc;strokeColor=#6c8ebf;dashed=1;" parent="1" source="fIth8sYgdClS8fjmsM_W-203" target="fIth8sYgdClS8fjmsM_W-167" edge="1">
          <mxGeometry width="50" height="50" relative="1" as="geometry">
            <mxPoint x="2058" y="730" as="sourcePoint" />
            <mxPoint x="2058" y="591" as="targetPoint" />
          </mxGeometry>
        </mxCell>
        <mxCell id="fIth8sYgdClS8fjmsM_W-237" value="MPI.AllReduce" style="text;strokeColor=none;fillColor=none;align=center;verticalAlign=middle;whiteSpace=wrap;rounded=0;fontSize=30;fontColor=#6c8ebf;" parent="1" vertex="1">
          <mxGeometry x="1790" y="610" width="410" height="70" as="geometry" />
        </mxCell>
      </root>
    </mxGraphModel>
  </diagram>
</mxfile>
